<?xml version="1.0" encoding="UTF-8"?>
<svg id="Layer_1" data-name="Layer 1" xmlns="http://www.w3.org/2000/svg" viewBox="0 0 450 150">
  <defs>
    <style>
      .cls-1 {
        isolation: isolate;
      }
    </style>
  </defs>
  <path d="M27.59,57.46c-4.04,2.45-8.26,2.45-12.7,1.19-11.6-3.3-18.45-14.25-7.25-23.11.07-6.95,5.18-13.21,12.06-14.4-.89-7.93,1.81-16.55,10.34-18.61,6.88-1.66,15.12-.02,19.02,6.32C67.09.05,78.58,26.34,62.09,35.56c.78,2.94,1,6,2.41,8.76.64,1.26,3.44,4.13,1.34,5.21-.84.43-4.44.32-5.76.46-3.99.43-8.12,1.49-11.89,2.85-2.43.87-10.23,4.21-11.37,6.27-.93,1.68-1.03,3.95-3.57,4.32-2.99.44-4.73-3.75-5.66-5.97ZM47.52,13.26c-1.55-7.1-9.22-9.18-15.65-8.07-9.12,1.58-10.07,10.57-8.93,18.25-7.58.78-12.68,5.91-12.47,13.69-10.96,7.35-3.72,16.93,6.53,18.99,3.03.61,10.83.68,9.61-4.22-.52-2.12-2.04-1.76-3.73-2.49-1.81-.78-3.78-2.37-5.05-3.88-.2-.23-.5-.34-.41-.73,1.72,1.71,6.13,4.73,8.6,4.35,1.12-.17,2.9-3.16,3.75-4.14.89-1.05,2.24-2.1,3.02-3,1.32-1.54-.74-2.32-1.67-3.32-1.46-1.57-2.88-3.67-3.52-5.71,1.58,1.84,5.03,6.09,7.58,6.23,1.3.07,3.21-1.56,4.45-2.19,2.98-1.53,4.3-1.29,6.32-4.27,3-4.42,4.27-9.85,3.24-15.13,1.51,2.04,2.19,5.26,2.08,7.79-.12,3.01-1.51,5.71-2.7,8.39,1.66-.46,3.92-.15,5.45-.46,1.18-.24,5.02-2.82,6.06-3.69,1.72-1.44,3.95-3.69,4.06-6.01.26-.06.34.4.37.57.46,3.64-4.82,7.26-7.42,9.08,1.7.66,2.9.05,4.34-.85,11.86-7.38,3.56-27.44-10.56-21.15-1.18.52-2.18,1.38-3.32,1.97h-.03ZM62.67,47.29l-1.87-3.83c-.86-1.48-.84-6.16-1.77-7.15-.47-.5-2.17-.54-2.93-.56-10.04-.24-21.12,5.71-27.04,13.73-.41.55-1.1,1.38-1.04,2.05,1.14,2.34,2.14,5.12,3.49,7.32,2.24,3.64,1.92,0,2.73-1.29.57-.92,4.73-3.45,5.89-4.08,6.78-3.67,14.91-5.52,22.55-6.19h0Z"/>
  <g class="cls-1">
    <path d="M37.34,106.25c-3.56-1.99-6.39-4.92-8.48-8.78-2.09-3.86-3.14-8.48-3.14-13.86,0-7.57,1.38-14.24,4.15-20.02,2.76-5.78,6.52-10.23,11.28-13.37,4.75-3.14,10.02-4.71,15.8-4.71,4.43,0,8.43,1,11.99,2.99,3.56,1.99,6.39,4.92,8.48,8.78,2.09,3.86,3.14,8.48,3.14,13.85,0,7.57-1.38,14.24-4.15,20.02-2.76,5.78-6.52,10.23-11.28,13.37-4.76,3.14-10.02,4.71-15.8,4.71-4.43,0-8.43-1-11.99-2.99ZM60.34,96.84c2.96-2.39,5.24-5.71,6.83-9.97,1.59-4.26,2.39-9.08,2.39-14.45,0-5.93-1.25-10.42-3.73-13.48-2.49-3.06-5.7-4.59-9.64-4.59s-7.22,1.18-10.16,3.55c-2.94,2.37-5.23,5.68-6.87,9.93-1.64,4.26-2.46,9.1-2.46,14.53,0,5.93,1.24,10.42,3.73,13.48,2.49,3.06,5.7,4.59,9.64,4.59s7.31-1.2,10.27-3.58Z"/>
  </g>
  <g class="cls-1">
    <path d="M127.94,93.11c.37.6.56,1.42.56,2.46,0,1.99-.47,3.54-1.42,4.63-2.04,2.49-4.28,4.62-6.72,6.39-2.44,1.77-4.85,2.65-7.25,2.65-3.79,0-6.67-2.21-8.66-6.65-2.09,2.64-3.92,4.41-5.49,5.3s-3.4,1.34-5.49,1.34c-3.04,0-5.54-1.13-7.51-3.4-1.97-2.26-2.95-5.21-2.95-8.85,0-3.98.85-7.68,2.54-11.09,1.69-3.41,4.02-6.2,6.98-8.37,2.96-2.17,6.29-3.45,9.97-3.85.95-9.66,2.75-17.91,5.42-24.76,2.66-6.85,6.16-10.27,10.49-10.27,2.14,0,3.92.97,5.34,2.91,1.42,1.94,2.13,4.88,2.13,8.81,0,5.58-1.37,12.1-4.11,19.57-2.74,7.47-6.4,15.14-10.98,23.01.2,2.89.63,4.96,1.31,6.2.67,1.25,1.53,1.87,2.58,1.87,1.34,0,2.71-.6,4.11-1.79,1.39-1.19,3.26-3.19,5.6-5.97.6-.7,1.27-1.05,2.02-1.05.65,0,1.16.3,1.53.9ZM98.92,100.54c.95-.77,2.14-2.2,3.59-4.29-.5-2.69-.75-5.7-.75-9.04,0-1.19.05-3.14.15-5.83-2.74.85-5.02,2.68-6.83,5.49-1.82,2.81-2.73,5.94-2.73,9.37,0,3.64,1.24,5.45,3.73,5.45.95,0,1.89-.38,2.84-1.16ZM114.75,51.02c-.95,3.36-1.76,7.76-2.43,13.18-.67,5.43-1.16,11.1-1.46,17.03,5.58-12.15,8.37-21.91,8.37-29.28,0-1.89-.16-3.36-.49-4.41-.32-1.05-.71-1.57-1.16-1.57-.95,0-1.89,1.68-2.84,5.04Z"/>
    <path d="M124.57,105.8c-1.47-2.29-2.2-5.33-2.2-9.11,0-2.24.29-5.12.86-8.63.57-3.51,1.31-6.78,2.2-9.82.45-1.59,1.05-2.69,1.79-3.29.75-.6,1.94-.9,3.58-.9,2.54,0,3.81.85,3.81,2.54,0,1.25-.47,4.13-1.42,8.66-1.19,5.48-1.79,9.19-1.79,11.13,0,1.49.2,2.64.6,3.44.4.8,1.07,1.2,2.02,1.2.9,0,2.02-.62,3.36-1.87,1.34-1.24,3.14-3.21,5.38-5.9.6-.7,1.27-1.05,2.02-1.05.65,0,1.16.3,1.53.9s.56,1.42.56,2.46c0,1.99-.47,3.54-1.42,4.63-4.93,6.03-9.54,9.04-13.82,9.04-3.24,0-5.59-1.14-7.06-3.44ZM127.52,67.67c-1.05-.97-1.57-2.33-1.57-4.07s.68-3.2,2.05-4.37c1.37-1.17,3.07-1.76,5.12-1.76,1.84,0,3.34.45,4.48,1.34,1.15.9,1.72,2.17,1.72,3.81,0,1.99-.65,3.57-1.94,4.74-1.3,1.17-3.01,1.76-5.15,1.76s-3.66-.49-4.71-1.46Z"/>
    <path d="M142.13,106.25c-.77-1.99-1.16-5.18-1.16-9.56,0-6.47.92-12.62,2.76-18.45.45-1.44,1.18-2.5,2.2-3.17,1.02-.67,2.45-1.01,4.29-1.01,1,0,1.69.12,2.09.37.4.25.6.72.6,1.42,0,.8-.37,2.59-1.12,5.38-.5,1.99-.9,3.73-1.19,5.23-.3,1.49-.55,3.34-.75,5.53,1.64-4.28,3.48-7.77,5.53-10.46,2.04-2.69,4.04-4.61,6.01-5.75,1.97-1.14,3.77-1.72,5.42-1.72,3.24,0,4.85,1.62,4.85,4.86,0,1.94-.55,5.45-1.64,10.53-.95,4.33-1.42,7.2-1.42,8.59,0,1.99.72,2.99,2.17,2.99,1,0,2.18-.61,3.55-1.83,1.37-1.22,3.2-3.2,5.49-5.94.6-.7,1.27-1.05,2.02-1.05.65,0,1.16.3,1.53.9s.56,1.42.56,2.46c0,1.99-.47,3.54-1.42,4.63-2.14,2.64-4.44,4.81-6.91,6.5-2.46,1.69-5.27,2.54-8.4,2.54-2.54,0-4.46-.73-5.75-2.2-1.3-1.47-1.94-3.6-1.94-6.39,0-1.39.35-3.88,1.05-7.47.65-3.14.97-5.3.97-6.5,0-.8-.27-1.2-.82-1.2-.65,0-1.56.83-2.73,2.5-1.17,1.67-2.37,3.87-3.58,6.61-1.22,2.74-2.2,5.63-2.95,8.67-.55,2.34-1.18,3.92-1.9,4.74-.72.82-1.86,1.23-3.4,1.23-1.89,0-3.22-1-4-2.99Z"/>
  </g>
  <g class="cls-1">
    <path d="M268,93.11c.37.6.56,1.42.56,2.46,0,1.94-.47,3.49-1.42,4.63-2.39,2.89-4.81,5.12-7.25,6.68-2.44,1.57-5.33,2.35-8.66,2.35s-5.99-.87-8.25-2.61c-2.27-1.74-4.42-4.73-6.46-8.96-1.64-3.39-2.94-5.89-3.88-7.51-.95-1.62-1.88-2.78-2.8-3.47-.92-.7-2.05-1.12-3.4-1.27-.2,1.05-.77,4.33-1.72,9.86-.4,2.49-.65,4.01-.75,4.56-.5,3.04-1.49,5.37-2.99,6.98-1.49,1.62-3.76,2.43-6.8,2.43-3.34,0-6.29-.98-8.85-2.95-2.57-1.97-4.54-4.71-5.94-8.22-1.39-3.51-2.09-7.51-2.09-11.99,0-8.37,1.46-15.58,4.37-21.66,2.91-6.07,7-10.72,12.25-13.93,5.25-3.21,11.32-4.82,18.19-4.82,4.78,0,8.79.72,12.03,2.17,3.24,1.44,5.64,3.44,7.21,5.98,1.57,2.54,2.35,5.4,2.35,8.59,0,2.79-.66,5.52-1.98,8.18-1.32,2.66-3.3,5.02-5.94,7.06-2.64,2.04-5.85,3.56-9.63,4.56,2.39.65,4.23,1.69,5.53,3.14,1.29,1.45,2.59,3.56,3.88,6.35,1.39,2.99,2.78,5.18,4.15,6.57,1.37,1.39,2.95,2.09,4.74,2.09,1.59,0,3.11-.54,4.56-1.61,1.44-1.07,3.26-2.9,5.45-5.49.6-.7,1.27-1.05,2.02-1.05.65,0,1.16.3,1.53.9ZM216.12,85.34c-1.69,0-2.85-.4-3.47-1.19-.62-.8-.93-1.69-.93-2.69,0-1.2.39-2.14,1.16-2.84.77-.7,1.66-1.05,2.65-1.05h1.87c.8-4.88,1.54-9.09,2.24-12.62.65-3.24,2.74-4.85,6.27-4.85,2.84,0,4.26,1.27,4.26,3.81,0,.55-.03.97-.08,1.27l-2.24,12.4c2.69-.15,5.14-.8,7.36-1.94,2.21-1.14,3.98-2.74,5.3-4.78,1.32-2.04,1.98-4.36,1.98-6.95,0-3.14-1.07-5.6-3.21-7.39-2.14-1.79-5.28-2.69-9.41-2.69-4.88,0-9.15,1.21-12.81,3.62-3.66,2.42-6.51,6-8.55,10.76-2.04,4.76-3.06,10.54-3.06,17.37,0,3.19.32,5.93.97,8.22.65,2.29,1.44,4.01,2.39,5.15.95,1.15,1.84,1.72,2.69,1.72.65,0,1.18-.32,1.61-.97.42-.65.76-1.69,1.01-3.14l2.02-11.2Z"/>
  </g>
  <g class="cls-1">
    <path d="M295.86,93.11c.37.6.56,1.42.56,2.46,0,1.99-.47,3.54-1.42,4.63-1.84,2.24-4.44,4.31-7.81,6.2-3.36,1.89-6.96,2.84-10.79,2.84-5.23,0-9.29-1.42-12.17-4.26-2.89-2.84-4.33-6.72-4.33-11.65,0-3.44.72-6.63,2.17-9.6,1.44-2.96,3.45-5.31,6.01-7.06,2.56-1.74,5.46-2.61,8.7-2.61,2.89,0,5.2.86,6.95,2.58,1.74,1.72,2.61,4.05,2.61,6.98,0,3.44-1.23,6.39-3.7,8.85s-6.64,4.42-12.51,5.86c1.24,2.29,3.61,3.44,7.1,3.44,2.24,0,4.79-.78,7.66-2.35,2.86-1.57,5.34-3.62,7.43-6.16.6-.7,1.27-1.05,2.02-1.05.65,0,1.16.3,1.53.9ZM270.84,84.59c-1.27,2.14-1.9,4.73-1.9,7.77v.15c2.94-.7,5.25-1.74,6.95-3.14,1.69-1.39,2.54-3.01,2.54-4.85,0-.95-.26-1.71-.78-2.28-.52-.57-1.23-.86-2.13-.86-1.84,0-3.4,1.07-4.67,3.21Z"/>
    <path d="M293.24,105.09c-2.71-2.76-4.07-6.41-4.07-10.94,0-4.03.8-7.57,2.39-10.61,1.59-3.04,3.66-5.38,6.2-7.02,2.54-1.64,5.2-2.46,7.99-2.46s4.87.81,6.39,2.43c1.52,1.62,2.28,3.7,2.28,6.24,0,2.09-.46,3.86-1.38,5.3-.92,1.44-2.13,2.17-3.62,2.17-.95,0-1.71-.22-2.28-.67-.57-.45-.86-1.07-.86-1.87,0-.35.05-.75.15-1.19.1-.45.17-.77.22-.97.25-.75.37-1.44.37-2.09s-.16-1.15-.49-1.49c-.32-.35-.78-.52-1.38-.52-1.15,0-2.22.51-3.21,1.53s-1.79,2.4-2.39,4.14c-.6,1.74-.9,3.66-.9,5.75,0,5.78,2.51,8.66,7.54,8.66,2.04,0,4.25-.68,6.61-2.05,2.36-1.37,4.69-3.42,6.98-6.16.6-.7,1.27-1.05,2.02-1.05.65,0,1.16.3,1.53.9.37.6.56,1.42.56,2.46,0,1.89-.47,3.44-1.42,4.63-2.34,2.89-5.14,5.12-8.4,6.68-3.26,1.57-6.41,2.35-9.45,2.35-4.88,0-8.68-1.38-11.39-4.14Z"/>
    <path d="M319.98,105.8c-1.47-2.29-2.2-5.33-2.2-9.11,0-2.24.29-5.12.86-8.63s1.31-6.78,2.2-9.82c.45-1.59,1.04-2.69,1.79-3.29s1.94-.9,3.59-.9c2.54,0,3.81.85,3.81,2.54,0,1.25-.47,4.13-1.42,8.66-1.2,5.48-1.79,9.19-1.79,11.13,0,1.49.2,2.64.6,3.44.4.8,1.07,1.2,2.02,1.2.9,0,2.02-.62,3.36-1.87,1.34-1.24,3.14-3.21,5.38-5.9.6-.7,1.27-1.05,2.02-1.05.65,0,1.16.3,1.53.9.37.6.56,1.42.56,2.46,0,1.99-.47,3.54-1.42,4.63-4.93,6.03-9.54,9.04-13.82,9.04-3.24,0-5.59-1.14-7.06-3.44ZM322.93,67.67c-1.05-.97-1.57-2.33-1.57-4.07s.68-3.2,2.05-4.37c1.37-1.17,3.07-1.76,5.12-1.76,1.84,0,3.33.45,4.48,1.34,1.14.9,1.72,2.17,1.72,3.81,0,1.99-.65,3.57-1.94,4.74-1.29,1.17-3.01,1.76-5.15,1.76s-3.66-.49-4.71-1.46Z"/>
    <path d="M377.64,93.11c.37.6.56,1.42.56,2.46,0,1.99-.47,3.54-1.42,4.63-2.14,2.64-4.44,4.81-6.91,6.5-2.46,1.69-5.27,2.54-8.4,2.54-2.64,0-4.78-.95-6.42-2.84-2.84,1.84-5.8,2.79-8.89,2.84-.65,9.61-2.12,17.64-4.41,24.09-2.29,6.45-5.65,9.67-10.08,9.67-2.69,0-4.68-.97-5.98-2.91-1.29-1.94-1.94-4.63-1.94-8.07,0-4.88,1.12-10.57,3.36-17.07,2.24-6.5,5.7-13.66,10.38-21.47,0-7.27-.05-12.32-.15-15.16-.05-1.44.52-2.59,1.72-3.44,1.19-.85,2.69-1.27,4.48-1.27,1.05,0,1.8.21,2.28.64.47.42.73,1.26.78,2.5,0,1.25.02,2.17.07,2.76,1.59-1.99,3.16-3.42,4.71-4.29,1.54-.87,3.19-1.31,4.93-1.31,2.79,0,5.07,1.12,6.83,3.36,1.77,2.24,2.65,5.18,2.65,8.81,0,2.64-.42,5.2-1.27,7.69-.85,2.49-2.02,4.76-3.51,6.8,1.05.3,1.92.45,2.61.45,1.64,0,3.21-.6,4.71-1.79,1.49-1.19,3.41-3.19,5.75-5.97.6-.7,1.27-1.05,2.02-1.05.65,0,1.16.3,1.53.9ZM335.63,126.9c.9-5.85,1.47-13.13,1.72-21.85-2.14,4.98-3.83,9.73-5.08,14.27-1.24,4.53-1.87,8.34-1.87,11.43,0,1.59.19,2.81.56,3.66.37.85.81,1.27,1.31,1.27,1.34,0,2.46-2.93,3.36-8.78ZM351.5,99.12c1.52-1.57,2.73-3.51,3.62-5.83s1.34-4.74,1.34-7.28c0-1.49-.3-2.63-.9-3.4-.6-.77-1.39-1.16-2.39-1.16-1.79,0-3.96,1.89-6.5,5.68-.05,2.19-.07,5.4-.07,9.63,0,2.29-.03,4.06-.08,5.3,1.79-.4,3.45-1.38,4.97-2.95Z"/>
    <path d="M407,93.11c.37.6.56,1.42.56,2.46,0,1.99-.47,3.54-1.42,4.63-1.84,2.24-4.44,4.31-7.81,6.2-3.36,1.89-6.96,2.84-10.79,2.84-5.23,0-9.29-1.42-12.17-4.26-2.89-2.84-4.33-6.72-4.33-11.65,0-3.44.72-6.63,2.17-9.6,1.44-2.96,3.45-5.31,6.01-7.06,2.56-1.74,5.46-2.61,8.7-2.61,2.89,0,5.2.86,6.95,2.58,1.74,1.72,2.61,4.05,2.61,6.98,0,3.44-1.23,6.39-3.7,8.85s-6.64,4.42-12.51,5.86c1.24,2.29,3.61,3.44,7.1,3.44,2.24,0,4.79-.78,7.66-2.35,2.86-1.57,5.34-3.62,7.43-6.16.6-.7,1.27-1.05,2.02-1.05.65,0,1.16.3,1.53.9ZM381.98,84.59c-1.27,2.14-1.9,4.73-1.9,7.77v.15c2.94-.7,5.25-1.74,6.95-3.14,1.69-1.39,2.54-3.01,2.54-4.85,0-.95-.26-1.71-.78-2.28-.52-.57-1.23-.86-2.13-.86-1.84,0-3.4,1.07-4.67,3.21Z"/>
    <path d="M409.46,109.09c-1.37-1.19-2.05-2.54-2.05-4.03,0-1.29.47-2.41,1.42-3.36.95-.95,2.34-1.42,4.18-1.42.65,0,1.41.06,2.28.19.87.12,1.53.21,1.98.26-.05-1.29-.34-2.51-.86-3.66-.52-1.14-1.18-2.25-1.98-3.32-.8-1.07-1.54-2-2.24-2.8-1.54,2.94-3.08,5.38-4.59,7.32-1.52,1.94-3.17,3.79-4.97,5.53-.9.9-1.84,1.34-2.84,1.34-.8,0-1.44-.29-1.94-.86-.5-.57-.75-1.28-.75-2.13,0-1,.35-1.92,1.04-2.76l.97-1.19c2.74-3.39,4.8-6.17,6.2-8.37.85-1.44,1.84-3.37,2.99-5.79,1.15-2.42,2.27-4.92,3.36-7.51.95-2.19,2.91-3.29,5.9-3.29,1.39,0,2.37.12,2.91.37.55.25.82.65.82,1.2,0,.3-.1.77-.3,1.42-.2.65-.47,1.3-.82,1.94-.9,1.79-1.34,3.31-1.34,4.56,0,.75.26,1.57.78,2.46.52.9,1.33,2.02,2.43,3.36,1.59,2.09,2.8,3.87,3.62,5.34s1.23,3.08,1.23,4.82c0,.5-.05,1.2-.15,2.09,2.44-.95,5.3-3.46,8.59-7.54.6-.7,1.27-1.05,2.02-1.05.65,0,1.16.3,1.53.9.37.6.56,1.42.56,2.46,0,1.89-.47,3.44-1.42,4.63-2.49,3.09-4.87,5.19-7.13,6.31-2.27,1.12-5.07,1.73-8.4,1.83-1.99,1.69-4.36,2.54-7.1,2.54-2.59,0-4.57-.6-5.94-1.79Z"/>
  </g>
</svg>