<?xml version="1.0" encoding="UTF-8"?>
<svg id="Layer_1" data-name="Layer 1" xmlns="http://www.w3.org/2000/svg" viewBox="0 0 450 150">
  <defs>
    <style>
      .cls-1, .cls-2, .cls-3, .cls-4 {
        isolation: isolate;
      }

      .cls-1, .cls-3, .cls-4 {
        font-family: Pacifico-Regular, Pacifico;
        font-size: 74.69px;
      }

      .cls-3 {
        letter-spacing: -.02em;
      }

      .cls-4 {
        letter-spacing: -.02em;
      }
    </style>
  </defs>
  <path d="M27.59,57.46c-4.04,2.45-8.26,2.45-12.7,1.19-11.6-3.3-18.45-14.25-7.25-23.11.07-6.95,5.18-13.21,12.06-14.4-.89-7.93,1.81-16.55,10.34-18.61,6.88-1.66,15.12-.02,19.02,6.32C67.09.05,78.58,26.34,62.09,35.56c.78,2.94,1,6,2.41,8.76.64,1.26,3.44,4.13,1.34,5.21-.84.43-4.44.32-5.76.46-3.99.43-8.12,1.49-11.89,2.85-2.43.87-10.23,4.21-11.37,6.27-.93,1.68-1.03,3.95-3.57,4.32-2.99.44-4.73-3.75-5.66-5.97ZM47.52,13.26c-1.55-7.1-9.22-9.18-15.65-8.07-9.12,1.58-10.07,10.57-8.93,18.25-7.58.78-12.68,5.91-12.47,13.69-10.96,7.35-3.72,16.93,6.53,18.99,3.03.61,10.83.68,9.61-4.22-.52-2.12-2.04-1.76-3.73-2.49-1.81-.78-3.78-2.37-5.05-3.88-.2-.23-.5-.34-.41-.73,1.72,1.71,6.13,4.73,8.6,4.35,1.12-.17,2.9-3.16,3.75-4.14.89-1.05,2.24-2.1,3.02-3,1.32-1.54-.74-2.32-1.67-3.32-1.46-1.57-2.88-3.67-3.52-5.71,1.58,1.84,5.03,6.09,7.58,6.23,1.3.07,3.21-1.56,4.45-2.19,2.98-1.53,4.3-1.29,6.32-4.27,3-4.42,4.27-9.85,3.24-15.13,1.51,2.04,2.19,5.26,2.08,7.79-.12,3.01-1.51,5.71-2.7,8.39,1.66-.46,3.92-.15,5.45-.46,1.18-.24,5.02-2.82,6.06-3.69,1.72-1.44,3.95-3.69,4.06-6.01.26-.06.34.4.37.57.46,3.64-4.82,7.26-7.42,9.08,1.7.66,2.9.05,4.34-.85,11.86-7.38,3.56-27.44-10.56-21.15-1.18.52-2.18,1.38-3.32,1.97h-.03ZM62.67,47.29l-1.87-3.83c-.86-1.48-.84-6.16-1.77-7.15-.47-.5-2.17-.54-2.93-.56-10.04-.24-21.12,5.71-27.04,13.73-.41.55-1.1,1.38-1.04,2.05,1.14,2.34,2.14,5.12,3.49,7.32,2.24,3.64,1.92,0,2.73-1.29.57-.92,4.73-3.45,5.89-4.08,6.78-3.67,14.91-5.52,22.55-6.19h0Z"/>
  <g class="cls-2">
    <text class="cls-4" transform="translate(20.94 108.87)"><tspan x="0" y="0">O</tspan></text>
    <text class="cls-1" transform="translate(80.39 108.87)"><tspan x="0" y="0">din </tspan></text>
    <text class="cls-3" transform="translate(193.19 108.87)"><tspan x="0" y="0">R</tspan></text>
    <text class="cls-1" transform="translate(257.43 108.87)"><tspan x="0" y="0">ecipes</tspan></text>
  </g>
</svg>